<svg xmlns="http://www.w3.org/2000/svg" viewBox="0 0 507.58 507.58"><defs><style>.cls-1{fill:#fff;}.cls-2{fill:none;}</style></defs><g id="图层_2" data-name="图层 2"><g id="图层_1-2" data-name="图层 1"><path class="cls-1" d="M393.68,195.68h80.77l33.13-34.45H292.08c-23.84.71-46.52,14.6-50,38.2-3.42,23.19,5.93,43.79,29.65,51.76,6.31,2.11,19.77,4.7,26.78,6.58,4,1.08,8.52,2.1,11.34,5.19,6.07,6.65,2.88,17.27-5.49,20.59-3.05,1.22-14.2,1.66-17.49,1.65-16.1,0-55.22,0-55.22,0l.21-151.59H186.41L0,320.21H55.91L195.23,175.4V285.12l-77.4-.11L83,320.21H302c23.44,0,41.63-15.75,45.5-38.7,3.78-22.33-2.91-43-28.46-52.1-6.89-2.44-19.44-4.66-27.78-6.74-2.87-.72-7.53-1.91-9.76-3.91-4.27-3.84-4.84-8.63-3.3-14.11s7-8.5,12.47-9c2.94-.24,56.5,0,67.8,0V320.21h35.22V260.4h50.8l32-32.15-82.76.09Zm0,40.66,63.49-.07-16,16.13H385.68v59.81H366.46v-143H488.79L471,187.68H385.68v48.67Z"/><rect class="cls-2" width="507.58" height="507.58"/></g></g></svg>